<svg xmlns="http://www.w3.org/2000/svg" xmlns:xlink="http://www.w3.org/1999/xlink" width="100px" height="100px" preserveAspectRatio="xMidYMid meet" viewBox="0 0 16 16" style="-ms-transform: rotate(360deg); -webkit-transform: rotate(360deg); transform: rotate(360deg);"><g fill="#0a4994"><path fill-rule="evenodd" d="M10.146 4.646a.5.5 0 0 1 .708 0l3 3a.5.5 0 0 1 0 .708l-3 3a.5.5 0 0 1-.708-.708L12.793 8l-2.647-2.646a.5.5 0 0 1 0-.708z"/><path fill-rule="evenodd" d="M2 8a.5.5 0 0 1 .5-.5H13a.5.5 0 0 1 0 1H2.5A.5.5 0 0 1 2 8z"/></g><rect x="0" y="0" width="16" height="16" fill="rgba(0, 0, 0, 0)" /></svg>